<?xml version="1.0" encoding="UTF-8"?><svg xmlns="http://www.w3.org/2000/svg" xmlns:xlink="http://www.w3.org/1999/xlink" version="1.1" id="Layer_1" x="0px" y="0px" viewBox="0 0 24 24" xml:space="preserve"><circle fill="#039BE5" cx="12" cy="2.5" r="2.5"/><path opacity="0.1" d="M12 4.75a2.56 2.56 0 0 1-2.463-1.822C9.74 4.102 10.768 5 12 5s2.26-.898 2.464-2.072A2.56 2.56 0 0 1 12 4.75z"/><path opacity="0.2" fill="#FFF" d="M12.001.25a2.56 2.56 0 0 1 2.463 1.822C14.26.898 13.233 0 12.001 0s-2.26.898-2.464 2.072A2.56 2.56 0 0 1 12 .25z"/><path fill="#039BE5" d="M1 6v3h7v15h3.5v-8h1v8H16V9h7V6z"/><path opacity="0.1" d="M1 8.75h7V9H1z"/><path opacity="0.1" d="M8 23.75h3.5V24H8z"/><path opacity="0.1" d="M12.5 23.75H16V24h-3.5z"/><path opacity="0.1" d="M16 8.75h7V9h-7z"/><path opacity="0.2" fill="#FFF" d="M1 6h22v.25H1z"/><linearGradient id="SVGID_1_" gradientUnits="userSpaceOnUse" x1="0.3587835" y1="7.375093" x2="19.5785141" y2="16.3374004"><stop offset="0" stop-color="#FFF" stop-opacity="0.2"/><stop offset="1" stop-color="#FFF" stop-opacity="0"/></linearGradient><path fill="url(#SVGID_1_)" d="M12 5c1.378 0 2.5-1.122 2.5-2.5S13.378 0 12 0 9.5 1.122 9.5 2.5 10.622 5 12 5zM1 6v3h7v15h3.5v-8h1v8H16V9h7V6H1z"/><metadata><rdf:RDF xmlns:rdf="http://www.w3.org/1999/02/22-rdf-syntax-ns#" xmlns:rdfs="http://www.w3.org/2000/01/rdf-schema#" xmlns:dc="http://purl.org/dc/elements/1.1/"><rdf:Description about="https://iconscout.com/legal#licenses" dc:title="ui,interface,user,accesability,help" dc:description="ui,interface,user,accesability,help" dc:publisher="Iconscout" dc:date="2017-11-13" dc:format="image/svg+xml" dc:language="en"><dc:creator><rdf:Bag><rdf:li>Those Icons</rdf:li></rdf:Bag></dc:creator></rdf:Description></rdf:RDF></metadata></svg>