<?xml version="1.0" encoding="UTF-8"?><svg xmlns="http://www.w3.org/2000/svg" xmlns:xlink="http://www.w3.org/1999/xlink" version="1.1" id="Layer_1" x="0px" y="0px" viewBox="0 0 48 48" xml:space="preserve"><path d="M22.903 3.286a2.247 2.247 0 0 1 2.193 0l16.807 9.434A2.12 2.12 0 0 1 43 14.566v18.867c0 .762-.418 1.466-1.097 1.847l-16.807 9.434a2.247 2.247 0 0 1-2.193 0L6.096 35.28A2.122 2.122 0 0 1 5 33.434V14.567c0-.762.418-1.466 1.097-1.847l16.806-9.434z" fill="#00C853"/><path d="M5.304 34.404C5.038 34.048 5 33.71 5 33.255V14.496c0-.758.417-1.458 1.094-1.836l16.748-9.38c.677-.379 1.594-.371 2.271.008 3.343 1.872 13.371 7.459 16.714 9.331.27.152.476.335.66.576L5.304 34.404z" fill="#69F0AE"/><path d="M24 10c-7.73 0-14 6.27-14 14s6.27 14 14 14 14-6.27 14-14-6.27-14-14-14zm0 21c-3.86 0-7-3.14-7-7s3.14-7 7-7 7 3.14 7 7-3.14 7-7 7z" fill="#FFF"/><path d="M42.485 13.205c.516.483.506 1.211.506 1.784 0 3.795-.032 14.589.009 18.384.004.396-.127.813-.323 1.127L23.593 24l18.892-10.795z" fill="#00E676"/><path fill="#FFF" d="M34 20h1v8h-1z"/><path fill="#FFF" d="M37 20h1v8h-1z"/><path fill="#FFF" d="M32 25h8v1h-8z"/><path fill="#FFF" d="M32 22h8v1h-8z"/><metadata><rdf:RDF xmlns:rdf="http://www.w3.org/1999/02/22-rdf-syntax-ns#" xmlns:rdfs="http://www.w3.org/2000/01/rdf-schema#" xmlns:dc="http://purl.org/dc/elements/1.1/"><rdf:Description about="https://iconscout.com/legal#licenses" dc:title="c,sharp,logo" dc:description="c,sharp,logo" dc:publisher="Iconscout" dc:date="2017-12-15" dc:format="image/svg+xml" dc:language="en"><dc:creator><rdf:Bag><rdf:li>Icons8</rdf:li></rdf:Bag></dc:creator></rdf:Description></rdf:RDF></metadata></svg>