<svg xmlns="http://www.w3.org/2000/svg" enable-background="new 0 0 66 66" viewBox="0 0 66 66"><rect width="21.777" height="26.404" x="42.947" y="1" fill="#E2EBF5"/><rect width="20.171" height="24.798" x="43.75" y="1.803" fill="#CFDEEF"/><g opacity=".2"><polygon fill="#FFF" points="63.921 17.713 63.921 21.729 53.867 1.803 55.893 1.803"/><polygon fill="#FFF" points="55.746 26.601 44.667 1.803 43.75 1.803 43.75 6.424 52.764 26.601"/><polygon fill="#FFF" points="50.681 26.601 43.75 11.087 43.75 19.277 47.023 26.601"/><polygon fill="#FFF" points="63.921 5.951 63.921 13.203 58.169 1.803 61.825 1.803"/><polygon fill="#FFF" points="62.67 26.601 51.588 1.803 46.073 1.803 57.153 26.601"/></g><rect width=".546" height="24.798" x="56.833" y="1.803" fill="#E2EBF5"/><rect width=".546" height="24.798" x="50.291" y="1.803" fill="#E2EBF5"/><g><circle cx="7.562" cy="7.821" r="6.285" fill="#E2EBF5"/><path fill="#CFDEEF" d="M7.5621,2.49932c-2.93481,0-5.32251,2.38696-5.32251,5.32086c0,2.93494,2.3877,5.32263,5.32251,5.32263
			c2.93396,0,5.32092-2.3877,5.32092-5.32263C12.88302,4.88629,10.49606,2.49932,7.5621,2.49932z"/><polygon fill="#F15B57" points="7.252 7.963 7.561 3.928 7.871 7.963"/><polygon fill="#4A6DB4" points="7.78 7.744 9.821 10.223 7.342 8.182"/><circle cx="7.612" cy="7.903" r=".695" fill="#FDBB1E"/><circle cx="7.564" cy="3.496" r=".259" fill="#A5B2BF"/><circle cx="5.367" cy="4.11" r=".259" fill="#A5B2BF"/><circle cx="3.772" cy="5.741" r=".259" fill="#A5B2BF"/><circle cx="3.205" cy="7.95" r=".259" fill="#A5B2BF"/><circle cx="3.82" cy="10.147" r=".259" fill="#A5B2BF"/><circle cx="5.45" cy="11.742" r=".259" fill="#A5B2BF"/><circle cx="7.659" cy="12.309" r=".259" fill="#A5B2BF"/><circle cx="9.856" cy="11.695" r=".259" fill="#A5B2BF"/><circle cx="11.452" cy="10.064" r=".259" fill="#A5B2BF"/><circle cx="12.018" cy="7.855" r=".259" fill="#A5B2BF"/><circle cx="11.404" cy="5.658" r=".259" fill="#A5B2BF"/><circle cx="9.589" cy="3.964" r=".259" fill="#A5B2BF"/></g><g><path fill="#273240" d="M10.34739,64.99996l5.96757-25.2579l2.08718,21.50339c0.0832,0.23999,0.34469,0.36732,0.58604,0.2847
				c0.24062-0.08366,0.36791-0.34587,0.2847-0.58604l-2.52255-22.75958c-0.06432-0.18575-0.23927-0.30989-0.43537-0.30989
				s-0.37105,0.12458-0.43537,0.30989L9.4066,64.99996H10.34739z"/><path fill="#273240" d="M12.39874 55.99389l5.03782-3.61387c.25457 0 .46056-.20599.46056-.46056s-.20599-.46056-.46056-.46056l-5.03782 3.61388c-.25457 0-.46056.20599-.46056.46056S12.14418 55.99389 12.39874 55.99389zM48.09814 61.53015c.2413.08261.50282-.04466.58604-.2847l2.08724-21.50339 5.96757 25.2579h.94079l-6.47299-26.81543c-.06432-.1853-.23927-.30989-.43537-.30989-.19609 0-.37106.12413-.43537.30989l-2.52261 22.75958C47.73023 61.18428 47.85751 61.4465 48.09814 61.53015z"/><path fill="#273240" d="M54.68761,55.99389l-5.03782-3.61387c-0.25457,0-0.46056-0.20599-0.46056-0.46056
				s0.20599-0.46056,0.46056-0.46056l5.03782,3.61388c0.25457,0,0.46056,0.20599,0.46056,0.46056
				S54.94218,55.99389,54.68761,55.99389z"/><rect width="56.452" height="1.576" x="3.349" y="37.801" fill="#E2EBF5"/><polygon fill="#CFDEEF" points="59.801 37.801 56.035 36.117 6.582 35.856 3.349 37.801"/><rect width="53.826" height="2.417" x="5.65" y="33.888" fill="#9D683E"/><rect width="53.826" height="2.473" x="3.349" y="31.42" fill="#A67650"/><path fill="#F8B29A" d="M32.05749,15.82452c0,0,1.33183-0.2617,1.5332-1.17762c0.33802-1.53744,0.80688-6.82582-3.19483-6.82581
			c-1.69473,0-2.44246,4.65594-2.44246,4.65594l0.98135,2.44246l1.03587,0.77417L32.05749,15.82452z"/><path fill="#F7AA8F" d="M32.05749,16.01777v-0.19325c-1.59085-0.398-2.87269-1.7915-4.10409-3.34748
			c0.00839,1.05779-0.04782,1.98539-0.36775,2.38137c0,0-0.04659,2.9179,0.66216,4.06281
			c0.70875,1.14491,2.34433,2.12625,2.59512,1.99541c0.25079-0.13085,2.13716-2.47517,2.12625-2.61692
			C32.95826,18.15794,32.05749,16.01777,32.05749,16.01777z"/><path fill="#F8B29A" d="M52.65266,13.98368c0,0,1.20666,0.28554,0.56186,0.95794
			c-0.64479,0.67245-1.90671,0.06448-1.90671,0.06448l-5.7017,2.33045c0,0-1.34479,0.28554-1.27114,0.23028
			c0.0737-0.05527,1.19749-2.19226,1.19749-2.19226l5.68326-1.18822c0,0,1.32641-1.28958,2.45936-0.958
			C54.80809,13.55995,52.65266,13.98368,52.65266,13.98368z"/><path fill="#273240" d="M39.29426 56.80071c-1.29634.45436-2.54684-1.19631-2.54684-1.19631l-.25843.19175c0 0-.60441-.41683-.70445-.62942-.10421-.21259.96218-1.8355.96218-1.8355l1.04917.22629C37.79589 53.55753 40.25714 56.46307 39.29426 56.80071zM30.84798 64.70592l.07033-.17586c0 0 .28684.32845.82728.46989h1.00072c.14443-.03284.2933-.07309.45409-.13892.72693-.30089-1.80827-2.04052-1.80827-2.04052l-.90166-.07213c0 0-.14668 1.67616-.0841 1.71916C30.46889 64.50662 30.84798 64.70592 30.84798 64.70592z"/><path fill="#30295B" d="M37.79589,53.55753l-1.04917-0.22629l1.69315-12.70893l-6.07939-2.56067
			c0.27638,7.79259-0.67356,17.4913-0.96832,24.75891l-0.90165-0.07213c-1.67644-18.09992-8.02279-24.67756-6.45688-30.17664
			l8.11502-3.32521l2.33966,2.07251l0.49738,1.30797c0,0,8.35452,3.07655,9.20193,5.63721
			C45.30219,41.67238,37.79589,53.55753,37.79589,53.55753z"/><path fill="#597ABC" d="M45.60611,17.35499c0,0.12891-0.07365,0.24866-0.20262,0.29471
			c-1.26192,0.44217-7.98605,2.83705-9.96647,3.91474c-0.80136,0.43295-0.94872,9.75463-0.94872,9.75463
			c-2.74496,1.08691-6.72418,1.4646-10.45468,1.2527c0,0-2.45014-11.13624-0.83819-14.34176
			c0.48816-0.96716,3.66602-2.31201,3.66602-2.31201l0.72766-1.05925c1.52908,1.65799,2.74496,3.27917,3.45418,4.84507
			l1.01326-3.68446c1.75008-0.61719,11.34814-0.81981,13.17193-0.85663c0.16579,0,0.30398,0.12891,0.3132,0.29471L45.60611,17.35499
			z"/><path fill="#F8B29A" d="M28.67602,38.2182c-0.10645,0.14365-0.20262-0.2671-0.21184-0.31315
			c0,0.08287-0.0276,0.99476-1.05008,0.65396c-0.92112-0.31315-0.63557-1.46454-0.63557-1.46454l-3.36203-6.05173l0.63557-1.21588
			l2.19226,0.79214c0,0,0.6279,4.89704,1.41088,5.94712C27.81178,36.77797,29.23346,37.46599,28.67602,38.2182z"/><path fill="#4A6DB4" d="M26.48382,30.38873c0,0.11053-0.07371,0.20267-0.18423,0.22106l-2.93171,0.46453
			c-0.11975,0.01838-0.22112-0.0461-0.24872-0.15663c-0.25794-0.96716-1.69231-5.34637-1.47119-9.24273
			c0.11969-2.07251,0.7-3.69362,2.10933-3.85025c1.43694-0.15657,2.38565,1.66722,2.5515,4.12663
			C26.43772,23.88566,26.4746,29.32948,26.48382,30.38873z"/><path fill="#273240" d="M27.83425,14.25816c0.00683-0.03099,0.95874-1.24684,0.95874-1.24684s-0.58881-1.81004,0.20717-2.14806
			c0.79598-0.33802,1.27695,1.06858,1.27695,1.06858h0.38044v-1.22123c0,0,0.87231-0.91592,0.52339-1.4066
			c0,0,3.95362-0.81113,3.88573-2.11793c-0.08723-1.67919-7.12099-1.14813-8.66162,1.40918
			C25.27105,10.4776,27.83425,14.25816,27.83425,14.25816z"/></g></svg>