<?xml version="1.0" encoding="UTF-8"?><!DOCTYPE svg PUBLIC "-//W3C//DTD SVG 1.1//EN" "http://www.w3.org/Graphics/SVG/1.1/DTD/svg11.dtd"><svg xmlns="http://www.w3.org/2000/svg" xmlns:xlink="http://www.w3.org/1999/xlink" version="1.1" id="Layer_1" x="0px" y="0px" width="48px" height="48px" viewBox="0 0 48 48" xml:space="preserve" fill="#000"><path d="M45 27H32.448c-1.239 3.489-4.533 6-8.448 6-3.912 0-7.209-2.511-8.448-6H3a3 3 0 1 1 0-6h12.552c1.239-3.486 4.536-6 8.448-6 3.915 0 7.209 2.514 8.448 6H45c1.659 0 3 1.341 3 3s-1.341 3-3 3zm-21-6a3 3 0 1 0 0 6c1.659 0 3-1.341 3-3s-1.341-3-3-3z"/><metadata><rdf:RDF xmlns:rdf="http://www.w3.org/1999/02/22-rdf-syntax-ns#" xmlns:rdfs="http://www.w3.org/2000/01/rdf-schema#" xmlns:dc="http://purl.org/dc/elements/1.1/"><rdf:Description about="https://iconscout.com/legal#licenses" dc:title="commit" dc:description="commit" dc:publisher="Iconscout" dc:date="2017-09-24" dc:format="image/svg+xml" dc:language="en"><dc:creator><rdf:Bag><rdf:li>Adam</rdf:li></rdf:Bag></dc:creator></rdf:Description></rdf:RDF></metadata></svg>