<svg xmlns="http://www.w3.org/2000/svg" viewBox="0 0 24 24"><path fill="#231f20" d="M17.51 9.27C16.23 4 12.88 2.14 12.74 2.06a.51.51 0 0 0-.48 0c-.17.1-3.53 2-4.79 7.23C6.26 10.28 3 13.16 3 15.5a.5.5 0 0 0 .5.5H7v1.5a.5.5 0 0 0 .5.5h10a.5.5 0 0 0 .5-.5V16h3.5a.5.5 0 0 0 .5-.5C22 13.15 18.71 10.26 17.51 9.27zM13.5 15h-2a.5.5 0 0 1 0-1h2a.5.5 0 0 1 0 1zm-1-2A2.5 2.5 0 1 1 15 10.5 2.5 2.5 0 0 1 12.5 13zM16.5 19a.5.5 0 0 0-.5.5v1a.5.5 0 0 0 1 0v-1A.5.5 0 0 0 16.5 19zM8.5 19a.5.5 0 0 0-.5.5v1a.5.5 0 0 0 1 0v-1A.5.5 0 0 0 8.5 19zM12.17 21.87a.48.48 0 0 0 .66 0A7.51 7.51 0 0 0 14.73 19H10.27A7.51 7.51 0 0 0 12.17 21.87z"/></svg>